<svg width="720" height="560" viewBox="0 0 720 560" fill="none" xmlns="http://www.w3.org/2000/svg">
  <rect width="720" height="560" rx="36" fill="#F8FBFC"/>
  <rect x="72" y="82" width="576" height="396" rx="24" fill="white" stroke="#DCE6EE" stroke-width="2"/>
  <rect x="106" y="120" width="208" height="110" rx="16" fill="#E4F5F4"/>
  <rect x="338" y="120" width="276" height="110" rx="16" fill="#FFF0EB"/>
  <rect x="106" y="256" width="508" height="178" rx="18" fill="#0F2347"/>
  <path d="M148 378C170 330 214 302 264 302C313 302 354 330 375 378" stroke="#FF7F6B" stroke-width="10" stroke-linecap="round"/>
  <path d="M436 378C453 349 480 332 508 332C537 332 565 349 582 378" stroke="#1F7A7D" stroke-width="10" stroke-linecap="round"/>
  <circle cx="180" cy="163" r="20" fill="#0F2347"/>
  <path d="M158 210H202" stroke="#0F2347" stroke-width="10" stroke-linecap="round"/>
  <path d="M366 170H566" stroke="#0F2347" stroke-width="10" stroke-linecap="round"/>
  <path d="M366 199H520" stroke="#0F2347" stroke-width="10" stroke-linecap="round"/>
  <rect x="132" y="304" width="122" height="18" rx="9" fill="#FFFFFF" fill-opacity="0.9"/>
  <rect x="132" y="336" width="94" height="14" rx="7" fill="#FFFFFF" fill-opacity="0.75"/>
  <rect x="132" y="364" width="158" height="14" rx="7" fill="#FFFFFF" fill-opacity="0.6"/>
</svg>
